<?xml version="1.0" standalone="no"?>
<!DOCTYPE svg PUBLIC "-//W3C//DTD SVG 20010904//EN"
 "http://www.w3.org/TR/2001/REC-SVG-20010904/DTD/svg10.dtd">
<svg version="1.0" xmlns="http://www.w3.org/2000/svg"
 width="1200.000000pt" height="1200.000000pt" viewBox="0 0 1200.000000 1200.000000"
 preserveAspectRatio="xMidYMid meet">

<g transform="translate(0.000000,1200.000000) scale(0.100000,-0.100000)"
fill="#000000" stroke="none">
<path d="M7600 6610 l0 -520 80 0 80 0 0 258 0 258 28 26 c41 39 86 58 136 58
58 0 103 -37 116 -95 5 -22 10 -145 10 -272 l0 -233 80 0 80 0 0 258 c0 281
-6 324 -55 388 -70 92 -213 109 -330 38 -32 -19 -59 -34 -61 -34 -2 0 -4 88
-4 195 l0 195 -80 0 -80 0 0 -520z"/>
<path d="M4946 7094 c-234 -51 -385 -245 -386 -496 0 -241 136 -426 365 -494
42 -13 93 -18 170 -18 123 0 192 16 288 66 l57 31 0 208 0 209 -165 0 -165 0
0 -51 c0 -81 8 -89 95 -89 l75 0 0 -94 0 -94 -47 -19 c-35 -13 -75 -18 -148
-18 -89 0 -106 3 -157 28 -67 33 -111 80 -147 157 -23 50 -26 67 -26 175 0
109 2 125 26 175 31 66 84 121 148 152 39 19 62 23 152 23 102 0 107 -1 182
-38 43 -21 85 -37 95 -35 9 2 32 25 50 52 l33 49 -23 24 c-33 35 -133 81 -213
98 -87 18 -169 18 -259 -1z"/>
<path d="M1860 6596 l0 -506 95 0 95 0 0 175 0 175 88 0 c291 0 436 111 436
335 0 117 -41 201 -122 255 -83 55 -125 63 -369 68 l-223 4 0 -506z m440 332
c25 -13 55 -39 68 -58 21 -30 23 -45 20 -107 -4 -85 -23 -117 -88 -150 -37
-20 -60 -23 -147 -23 l-103 0 0 180 0 180 103 0 c87 0 110 -4 147 -22z"/>
<path d="M8390 6595 l0 -505 218 0 c312 0 400 24 523 137 198 184 198 552 0
736 -123 113 -211 137 -523 137 l-218 0 0 -505z m502 335 c76 -28 122 -71 160
-148 32 -64 33 -71 33 -187 0 -116 -1 -123 -33 -187 -38 -77 -84 -120 -160
-148 -43 -16 -78 -20 -182 -20 l-130 0 0 355 0 355 130 0 c104 0 139 -4 182
-20z"/>
<path d="M9450 6596 l0 -506 208 0 c272 0 342 14 437 85 69 52 110 182 86 272
-19 71 -85 129 -171 153 -24 6 -24 7 17 28 96 49 141 132 130 236 -7 71 -38
130 -89 166 -75 55 -119 62 -380 68 l-238 4 0 -506z m458 334 c98 -44 96 -200
-3 -250 -21 -10 -69 -16 -152 -18 l-123 -4 0 146 0 146 118 0 c94 0 125 -4
160 -20z m28 -420 c53 -26 78 -74 71 -136 -11 -104 -66 -133 -249 -134 l-128
0 0 145 0 145 132 0 c112 0 138 -3 174 -20z"/>
<path d="M4170 7008 c-5 -13 -16 -61 -24 -107 -9 -47 -21 -88 -27 -92 -6 -4
-33 -10 -60 -13 -48 -7 -49 -7 -49 -42 0 -58 14 -74 65 -74 l45 0 0 -217 c0
-128 5 -234 11 -258 20 -73 97 -125 185 -125 42 0 128 27 154 48 l23 19 -28
47 c-23 40 -31 46 -49 41 -52 -17 -87 -17 -106 0 -19 17 -20 32 -20 232 l0
213 95 0 95 0 0 65 0 65 -95 0 -95 0 0 110 0 110 -55 0 c-48 0 -57 -3 -65 -22z"/>
<path d="M2893 6810 c-99 -20 -186 -89 -229 -182 -27 -58 -29 -72 -29 -178 0
-103 3 -121 26 -170 36 -77 80 -124 150 -159 136 -68 315 -45 414 54 135 135
136 414 3 547 -80 80 -205 113 -335 88z m184 -147 c42 -30 61 -71 72 -149 18
-123 -10 -231 -71 -277 -28 -21 -110 -34 -152 -23 -77 19 -126 111 -126 236 0
116 33 187 105 229 32 18 140 9 172 -16z"/>
<path d="M3608 6807 c-109 -31 -168 -105 -168 -211 0 -107 57 -165 207 -209
117 -35 156 -72 134 -130 -24 -63 -129 -75 -226 -28 -52 26 -63 28 -80 17 -26
-17 -58 -73 -50 -86 13 -22 107 -60 174 -72 127 -22 253 20 307 102 19 28 28
57 31 103 10 117 -33 163 -198 219 -140 47 -176 93 -119 152 29 30 113 33 178
7 29 -12 61 -21 71 -21 21 0 65 66 57 85 -2 7 -33 27 -68 44 -76 38 -176 49
-250 28z"/>
<path d="M5861 6798 c-25 -12 -57 -40 -74 -64 -17 -24 -34 -41 -39 -38 -4 3
-8 23 -8 44 0 55 -19 70 -91 70 l-59 0 0 -360 0 -360 85 0 85 0 0 220 c0 203
2 224 20 261 30 58 71 79 151 79 66 0 67 0 73 31 3 17 6 51 6 75 0 39 -3 46
-26 54 -39 15 -75 12 -123 -12z"/>
<path d="M6280 6809 c-53 -10 -169 -67 -183 -90 -8 -12 -4 -26 12 -53 28 -45
55 -47 135 -6 95 48 186 37 215 -27 7 -15 15 -51 18 -78 l5 -51 -98 -11 c-121
-14 -184 -33 -247 -73 -116 -74 -115 -245 3 -310 37 -21 58 -25 120 -24 83 1
130 16 191 65 l39 31 10 -27 c5 -14 10 -30 10 -35 0 -17 38 -30 85 -30 l46 0
-3 273 -3 272 -30 53 c-59 108 -173 150 -325 121z m198 -481 c-3 -61 -4 -63
-46 -92 -34 -24 -56 -31 -107 -34 -58 -4 -66 -2 -89 21 -27 27 -33 65 -16 98
21 38 104 66 203 68 l58 1 -3 -62z"/>
<path d="M7123 6810 c-37 -8 -114 -52 -133 -74 -19 -24 -28 -20 -35 17 -11 50
-22 57 -86 57 l-59 0 0 -475 0 -475 80 0 80 0 0 145 0 144 48 -29 c136 -84
323 -21 396 135 58 121 56 298 -4 421 -56 114 -162 164 -287 134z m108 -158
c39 -44 52 -100 47 -217 -3 -87 -7 -106 -30 -146 -31 -53 -76 -79 -136 -79
-49 0 -89 14 -119 42 -22 21 -23 28 -23 182 1 179 1 180 76 231 34 23 47 26
98 23 51 -4 63 -9 87 -36z"/>
<path d="M2340 5160 l0 -270 3675 0 3675 0 0 270 0 270 -3675 0 -3675 0 0
-270z m7330 0 l0 -260 -3655 0 -3655 0 0 260 0 260 3655 0 3655 0 0 -260z"/>
<path d="M2964 5309 c-10 -17 13 -36 27 -22 12 12 4 33 -11 33 -5 0 -12 -5
-16 -11z"/>
<path d="M3604 5309 c-10 -17 13 -36 27 -22 12 12 4 33 -11 33 -5 0 -12 -5
-16 -11z"/>
<path d="M5956 5298 c-3 -13 -6 -33 -6 -46 0 -21 -3 -22 -33 -17 -29 6 -37 2
-60 -24 -35 -42 -44 -93 -23 -126 20 -30 35 -31 70 -4 l26 20 0 -20 c0 -28 18
-27 24 2 6 29 26 198 26 220 0 25 -17 21 -24 -5z m-18 -118 c6 -77 -78 -141
-86 -66 -7 60 22 110 62 104 16 -2 22 -11 24 -38z"/>
<path d="M7030 5312 c0 -4 -7 -62 -15 -127 -8 -66 -15 -121 -15 -122 0 -2 6
-3 14 -3 9 0 15 18 19 54 6 59 23 93 49 102 34 11 40 -5 33 -82 -4 -50 -3 -74
4 -74 6 0 13 10 15 23 10 46 14 108 9 127 -7 28 -39 35 -69 15 -14 -9 -27 -15
-29 -13 -1 2 1 27 4 56 6 40 4 52 -6 52 -7 0 -13 -4 -13 -8z"/>
<path d="M9025 5308 c-8 -29 -27 -239 -21 -245 10 -11 15 0 24 60 5 31 17 66
27 77 20 22 54 27 56 8 3 -25 -2 -113 -7 -130 -3 -12 0 -18 10 -18 10 0 16 17
21 64 8 76 5 95 -18 110 -13 8 -24 7 -48 -7 l-31 -17 7 55 c4 38 3 55 -5 55
-6 0 -12 -6 -15 -12z"/>
<path d="M2510 5297 c0 -17 -19 -175 -25 -209 -4 -28 -4 -28 50 -28 42 0 59 5
79 23 34 31 40 60 18 87 -18 23 -18 24 0 42 25 25 23 63 -4 82 -28 20 -118 22
-118 3z m108 -40 c5 -38 -14 -57 -54 -57 -33 0 -34 1 -34 38 0 48 6 54 50 50
30 -3 35 -7 38 -31z m-10 -89 c17 -17 15 -54 -4 -72 -9 -9 -32 -16 -56 -16
-32 0 -39 3 -34 16 3 9 6 31 6 50 0 33 1 34 38 34 21 0 43 -5 50 -12z"/>
<path d="M4416 5289 c-22 -17 -27 -28 -24 -58 3 -31 9 -39 43 -57 42 -21 56
-53 35 -80 -15 -17 -61 -19 -78 -2 -9 9 -15 9 -24 0 -8 -8 -5 -14 16 -22 40
-15 60 -13 89 10 51 41 42 100 -19 126 -41 17 -50 34 -34 63 11 22 63 30 75
11 4 -6 11 -7 17 -4 15 10 -20 34 -48 34 -12 0 -33 -10 -48 -21z"/>
<path d="M4690 5292 c-48 -23 -72 -73 -67 -135 5 -62 30 -88 92 -94 34 -4 50
-12 62 -29 8 -13 22 -24 29 -24 20 0 17 10 -7 36 l-22 23 26 31 c52 61 44 165
-13 195 -37 19 -57 19 -100 -3z m100 -34 c37 -40 19 -142 -29 -168 -61 -32
-111 4 -111 81 0 43 5 55 29 80 36 36 81 39 111 7z"/>
<path d="M4976 5288 c-6 -25 -26 -195 -26 -215 0 -9 19 -13 60 -13 47 0 60 3
60 15 0 11 -12 15 -46 15 l-47 0 6 43 c17 120 19 177 9 177 -7 0 -14 -10 -16
-22z"/>
<path d="M6315 5300 c-87 -35 -109 -187 -33 -226 35 -18 89 -12 108 12 16 18
4 32 -12 16 -22 -22 -75 -14 -97 14 -25 31 -26 62 -7 109 21 50 78 71 126 45
28 -15 35 6 8 24 -24 17 -61 20 -93 6z"/>
<path d="M7830 5295 c0 -11 11 -15 36 -15 l37 0 -7 -55 c-3 -30 -9 -80 -13
-111 -5 -46 -3 -56 8 -52 9 3 17 28 21 69 19 158 15 149 54 149 24 0 34 5 34
15 0 12 -16 15 -85 15 -69 0 -85 -3 -85 -15z"/>
<path d="M8848 5294 c-5 -4 -8 -15 -8 -25 0 -10 -8 -23 -17 -29 -12 -7 -14
-13 -6 -16 8 -4 10 -28 6 -79 -5 -64 -3 -75 11 -81 9 -4 27 -2 39 4 l22 11
-22 0 c-31 1 -34 11 -27 80 6 56 9 61 30 61 13 0 24 5 24 10 0 6 -9 10 -19 10
-15 0 -21 8 -23 31 -2 17 -6 27 -10 23z"/>
<path d="M2765 5168 c-3 -40 -9 -81 -11 -90 -4 -12 0 -18 10 -18 11 0 16 9 16
28 0 15 4 41 9 57 9 33 3 95 -9 95 -4 0 -11 -33 -15 -72z"/>
<path d="M2822 5224 c-32 -22 -27 -35 8 -18 17 9 30 20 30 25 0 13 -13 11 -38
-7z"/>
<path d="M2955 5168 c-3 -40 -9 -81 -11 -90 -3 -11 0 -18 9 -18 11 0 17 18 22
68 3 37 9 77 12 90 4 15 1 22 -10 22 -11 0 -17 -18 -22 -72z"/>
<path d="M3106 5183 c-4 -32 -10 -73 -13 -90 -4 -25 -2 -33 9 -33 11 0 17 16
21 54 6 59 23 93 49 102 34 11 40 -5 33 -82 -4 -50 -3 -74 4 -74 12 0 17 20
26 97 4 39 2 55 -10 67 -22 21 -37 20 -69 -5 l-26 -20 0 20 c0 45 -18 18 -24
-36z"/>
<path d="M3375 5216 c-14 -14 -25 -34 -25 -45 0 -29 29 -53 57 -48 15 3 23 -1
23 -9 0 -8 -11 -14 -25 -14 -67 0 -105 -49 -64 -83 25 -20 78 -19 105 4 17 14
18 52 3 77 -9 14 -8 25 5 50 9 17 16 38 16 46 0 8 6 16 13 19 19 7 6 14 -40
22 -37 6 -45 3 -68 -19z m63 -13 c15 -28 -3 -63 -32 -63 -29 0 -39 21 -26 55
11 29 45 34 58 8z m2 -141 c0 -26 -20 -42 -52 -42 -30 0 -44 19 -34 45 3 10
19 15 46 15 32 0 40 -4 40 -18z"/>
<path d="M3595 5168 c-3 -40 -9 -81 -11 -90 -3 -11 0 -18 9 -18 11 0 17 18 22
68 3 37 9 77 12 90 4 15 1 22 -10 22 -11 0 -17 -18 -22 -72z"/>
<path d="M3746 5183 c-4 -32 -10 -73 -13 -90 -4 -25 -2 -33 9 -33 11 0 17 16
21 54 6 59 23 93 49 102 34 11 40 -5 33 -82 -4 -50 -3 -74 4 -74 12 0 17 20
26 97 4 39 2 55 -10 67 -22 21 -37 20 -69 -5 l-26 -20 0 20 c0 45 -18 18 -24
-36z"/>
<path d="M4015 5216 c-14 -14 -25 -34 -25 -45 0 -29 29 -53 57 -48 15 3 23 -1
23 -9 0 -8 -11 -14 -25 -14 -67 0 -105 -49 -64 -83 25 -20 78 -19 105 4 17 14
18 52 3 77 -9 14 -8 25 5 50 9 17 16 38 16 46 0 8 6 16 13 19 19 7 6 14 -40
22 -37 6 -45 3 -68 -19z m63 -13 c15 -28 -3 -63 -32 -63 -29 0 -39 21 -26 55
11 29 45 34 58 8z m2 -141 c0 -26 -20 -42 -52 -42 -30 0 -44 19 -34 45 3 10
19 15 46 15 32 0 40 -4 40 -18z"/>
<path d="M5400 5233 c-51 -19 -88 -91 -70 -137 14 -37 36 -42 71 -17 29 21 29
21 29 1 0 -11 4 -20 9 -20 10 0 20 53 24 130 2 42 0 45 -23 47 -14 1 -32 -1
-40 -4z m40 -46 c0 -48 -32 -102 -61 -102 -18 0 -25 6 -27 24 -8 53 28 111 68
111 16 0 20 -7 20 -33z"/>
<path d="M5586 5183 c-4 -32 -10 -73 -13 -90 -4 -25 -2 -33 9 -33 11 0 17 16
21 54 6 59 23 93 49 102 34 11 40 -5 33 -82 -4 -50 -3 -74 4 -74 12 0 17 20
26 97 4 39 2 55 -10 67 -22 21 -37 20 -69 -5 l-26 -20 0 20 c0 45 -18 18 -24
-36z"/>
<path d="M6520 5227 c0 -7 9 -45 20 -86 l21 -73 -20 -34 c-14 -23 -16 -34 -8
-34 7 0 38 52 70 115 62 124 62 125 47 125 -5 0 -24 -30 -41 -67 -34 -75 -33
-76 -59 25 -10 39 -30 59 -30 29z"/>
<path d="M6766 5213 c-3 -16 -8 -53 -11 -83 -3 -30 -8 -72 -11 -92 -5 -30 -3
-38 10 -38 12 0 16 10 16 35 0 35 1 36 33 30 37 -6 57 7 80 52 21 40 22 87 1
107 -21 21 -36 20 -68 -5 l-26 -20 0 20 c0 31 -18 26 -24 -6z m102 -32 c5 -45
-16 -90 -44 -97 -32 -8 -44 2 -44 39 0 81 81 134 88 58z"/>
<path d="M7303 5228 c-55 -27 -68 -137 -18 -160 33 -15 111 9 92 28 -4 4 -13
2 -19 -4 -17 -17 -65 -15 -72 4 -12 30 -6 42 26 48 41 8 78 32 78 51 0 19 -28
45 -48 44 -9 0 -27 -5 -39 -11z m57 -28 c0 -21 -27 -40 -59 -40 -25 0 -26 8
-5 38 20 28 64 30 64 2z"/>
<path d="M7506 5213 c-14 -73 -17 -153 -7 -153 10 0 14 11 25 79 7 38 31 71
53 71 7 0 13 7 13 15 0 21 -10 19 -37 -7 l-23 -21 0 21 c0 31 -17 27 -24 -5z"/>
<path d="M8133 5230 c-27 -11 -53 -59 -53 -100 0 -32 30 -70 55 -70 76 0 122
111 69 164 -17 18 -38 19 -71 6z m61 -26 c22 -57 -8 -127 -52 -122 -24 3 -27
8 -30 46 -4 53 18 92 52 92 13 0 27 -7 30 -16z"/>
<path d="M8360 5220 c-37 -37 -13 -108 31 -97 11 3 19 0 19 -8 0 -7 -18 -15
-40 -19 -31 -5 -44 -13 -52 -32 -11 -23 -10 -29 11 -45 60 -49 146 10 111 76
-11 20 -10 30 4 60 9 19 15 39 12 44 -3 5 2 12 12 17 14 6 12 8 -13 14 -52 13
-74 11 -95 -10z m68 -28 c4 -28 -14 -52 -39 -52 -23 0 -33 33 -19 60 15 29 54
23 58 -8z m2 -130 c0 -26 -20 -42 -52 -42 -30 0 -44 19 -34 45 3 10 19 15 46
15 32 0 40 -4 40 -18z"/>
<path d="M8599 5211 c-24 -24 -29 -38 -29 -75 0 -38 4 -48 25 -62 29 -19 85
-10 93 15 3 10 0 11 -16 2 -31 -17 -60 -13 -72 8 -16 31 -12 38 27 46 55 10
73 23 73 50 0 25 -25 45 -55 45 -9 0 -30 -13 -46 -29z m78 -7 c8 -20 -6 -32
-45 -40 -37 -7 -43 8 -15 38 20 22 52 24 60 2z"/>
<path d="M9279 5211 c-24 -24 -29 -38 -29 -75 0 -38 4 -48 25 -62 29 -19 85
-10 93 15 3 10 0 11 -16 2 -31 -17 -60 -13 -72 8 -16 31 -12 38 27 46 55 10
73 23 73 50 0 25 -25 45 -55 45 -9 0 -30 -13 -46 -29z m78 -7 c8 -20 -6 -32
-45 -40 -37 -7 -43 8 -15 38 20 22 52 24 60 2z"/>
<path d="M9495 5168 c-3 -40 -9 -81 -11 -90 -4 -12 0 -18 10 -18 11 0 16 9 16
28 0 15 4 41 9 57 9 33 3 95 -9 95 -4 0 -11 -33 -15 -72z"/>
<path d="M9552 5224 c-32 -22 -27 -35 8 -18 17 9 30 20 30 25 0 13 -13 11 -38
-7z"/>
</g>
</svg>
